/* XPM */
static char *_8950_14e504c39b4e7d0be26a74b978bdcbac6dc6f37cb1ee973de43266bab3fdd3cf[] = {
/* columns rows colors chars-per-pixel */
"86 110 25 1 ",
"  c black",
". c #180B0F",
"X c #141F1F",
"o c #231418",
"O c #2E1D23",
"+ c #34292E",
"@ c #4D0E05",
"# c #463511",
"$ c #493B43",
"% c #2F4848",
"& c #494349",
"* c #5B4951",
"= c #B80A0A",
"- c #EB0000",
"; c #8F6A20",
": c #D3B139",
"> c #806C8A",
", c #11B3AA",
"< c #00E6E6",
"1 c #AAAAAA",
"2 c #FFBAAF",
"3 c #F3DA94",
"4 c #B9EEEC",
"5 c #EAEAEA",
"6 c none",
/* pixels */
"66666666666666666666666666666666666  6666666666666666666666666666666666666666666666666",
"666666666666666666666666666666666666    6666666666666666666666666666666666666666666666",
"666666666666666666666666666666666666666  666666666666666666666666666666666666666666666",
"666666666666666666666666666666666666666  666666666666666666666666666666666666666666666",
"666666666666666666666666666666666       6666666666666666666666666666666666666666666666",
"6666666666666666666666666666666   6666666666666666666666666666666666666666666666666666",
"666666666666666666666666666666  666666666666666666666666666666666666666666666666666666",
"6666666666666666666666666666666        66666666666666666666666666666666666666666666666",
"6666666666666666666666666666666666 %%X.   66666666666666666666666666666666666666666666",
"66666666666666666666666666666666666 .%%X.   666666666666666666666666666666666666666666",
"666666666666666666666666666666666666 X%%XX   66666666666666666666666666666666666666666",
"666666666666666666666666666666666 66 .%X      66 6666666666666666666666666666666666666",
"666666666666666666666666666666666  6 . .+>>*.  6 6666666666666666666666666666666666666",
"666666666666666666666666666666666 .   +111>>*.   6666666666666666666666666666666666666",
"6666666666666666666666666666666666....15551>>O.  6666666666666666666666666666666666666",
"66666666666666666666666666666666666  +15551>>O. 66666666666666666666666666666666666666",
"666666666666666666666666666666  ..6  >15551>>O+ 6 . 66666.  66666666666666666666666666",
"666666666666666666666666 ....666 ..  >>111>>>++ ...66666. 66 6666666666666666666666666",
"66666666666666666666666 .6  .. 66 .. >>>>>>>*+* . 6666.. 666 6666666666666666@-@@66666",
"66666666666666666666666 .666 XX  6   *>>>11>*>*     XX. 666 6666666666666666@@2..@6666",
"666666666666666666666666 6666 %X     +*>.  **    .XXX. 6666 666666666666666@@555@.@666",
"66666666666666666666@ 666 6666 %X.   .+*>*++**. ..    666666 @ 666666666  @-25552-@@.6",
"6666@-@@66666666666@2@ 66 66666 .X.    OO++**+. . 6  6666666@2@ 6666666  *@.@555@..X.6",
"666@@2..@6666666666 @- 6 6666666        ++**+.   66 66666666 @- 666666  6 @.@@2@@.X%. ",
"66@@555@.@6666666666    666666666                6  666666666  6666666 66 @..@-@.X%%@ ",
"6@-25552-@@66666666666666666 66666       XXX%.   6 6666.  666666666666  6 @@..@....%  ",
"6@.@555@...66666666666666666   666 2@  .%%.XX% 6   6666 6  666666   66666  @....X  %  ",
"6@.@@2@@.X.6666666666666  6666  6  @-6 %X ..X% 66  666.666 666666 6666666X    X.% %X 6",
"  ..@-@.X%.6 66.XXX  6666 6666 .. 666 .X   ..X  66 666666. 6666   6666666X.   .%.%X 66",
"   ..@.X%%@  .X*%  XX.   66666....   .@@@66 .XX 66  66666. 666 **X 66666 X. .X%X%. 666",
"  %...X%,    X%   6 XX. 666666.X .. .22-=@66 ... 66  .66.   6.*X  X 6666 ..6 ..   6666",
"  %  X..       66  6..X.66666.%X .XX2552@=@66  ..     ..    ..% 66 X 66  .666  .666666",
"6 X% %.     666666 66 .X 666.*X  .X@2552 @@@6         .  6  .X 6666      .66   . 66666",
"66 X%.%.   6666666 666 .. ..*%  66X@-22  @=@       66 . 6666 X 666              .66666",
"666 .%X%X.  66666  666   .XX.  666 @==@  ==@      6666. 6666 X 6   66666    666  66666",
"6666   ..   6666   66666       6666 @@@@=-@        666 . 66 %    66666666   6666 66666",
"6666666      6  .6666666        66 XX@@==@     666  66 X.  %X  666    666  66666 66666",
"666666666 66     .66666  66      6 . %@@@     66666 666 X%%X 6.66  66  6  666666666666",
"666666666  66 66  .666 2@ 66      . 6 %.       666 2@       66.6.  666   6666666666666",
"6666666666 66 666 %.   @- 6  6  %X 66.%X  66    .. @-... 66666..X 6666  66666666666666",
"6666666666  6 6666 %X.      666 XX 66.%X 6666   6  ...  66666.X* 66666 666666666666666",
"6666666666  66  66  %+XXXX..   .. 666.X 6666 -@@.6  .. 6666..%*   666  666666666666666",
"66666666666@ 66  6  ..XX.        666.X. 666 -2 @=66 .. 666 XX. 66  @   666666666666666",
"6666666666@2@ 66 6 6 .X   66666.   XX... 66 =2 @=.66  66  XX  6666@2@ 6666666666666666",
"6666666666 @- 66 6 66.  666666.%X... ..%X   @@ -- 66    ..   66666 @- 6666666666666666",
"66666666666     6  66.   6666.%X ...   XX  6 @=-      ..  6 666666   666@-@@6666666666",
"666666666666 6666 666  66..6.X  6. 666  .X  66 ....   .  66 666666 6666@@2..@666666666",
"6666@-@@666  666  666 6666. .. 66 66666 X*%   ..   66 .XXX6 666666 666@@555@.@66666666",
"666@@2..@6  666  6666 66666.X. 66  66 66 %%....  66666 X.    6666    @-25552-@@.666666",
"66@@555@.@        66  66666... 666    666 ..X.  666666 .. X   66  . *@.@555@..X.666666",
"6@-25552-@@6 %.      X 66..%XX. 666  6666  .*%X666666     .X%%X  ..6 @.@@2@@.X%. 66666",
"6@.@555@...66  66   XXX .%%.X.....6666666 XX%%X 6666   6  6..X%%X  6 @..@-@.X%%@ 66666",
"6@.@@2@@.X.6666666     %%X   .      66666 %X.XX  66  66  666 ...X. . @@..@....%  66666",
"  ..@-@.X%.66 666       %% 6 . 666 .  6666 ..X.          66      ...  @....X  %  66666",
"   ..@.X%%  6 66    6666 . 66  6666 *..   ..XX    6  @2=   666666   X    X.% %X 666666",
"  %...X%,     6    666666 . 66  666 %..  ...X.   66 = 52  66666666  X.   .%.%X 6666666",
"  %  X..           6666666  666  6 %X 666 ..X   666 = @@ 6666666666 X. .X%X%. 66666666",
"6 X% %.            66666666  666 ..X 66666 .X  6   6 -= 66666666666 ..6 ..   666666666",
"66 X%.%.    ... 66 666666666 6666    6666  .. 66 6 66   6666666666  . 66  .66666666666",
"666 .%X%X.   66666 6666666666 666    6666 XX..66  6666  6 66666666  666666666666666666",
"6666   ..   666666 6666666666 66       6 %%X . 66  6666  666666666 6666666666666666666",
"66666666  66666  6 6666666666  6   -@@.  %%  ...66 666666666666666 6666666666666666666",
"66666666666666666666666666666     -2 @= .%  6  .   66666666666666666666666666666666666",
"66666666666666666666666666666     =2 @= XX 6666   666666666666666666666666666666666666",
"66666666666666666666666666666     @@ -- XX 6666666666666666666666666666666666666666666",
"6666666666666666666   66666666 6   @=-  X.  666666666666666666666666666666666666666666",
"666666666666666666  6  6666666 666      ..   66666666666666666666666666666666666666666",
"6666666666666666@2@ 66 666666  66666    .%%%  6666666666666666666666666666666666666666",
"6666666666666666 @- 66% 6666  6666  X....%% % 6666666666666666666666666666666666666666",
"66666666666666666  666% 6666 6666  .X.   %2@   666666666666666666666666666666666666666",
"666666666666666666666 X6666  66  *%X  66  @- .. 66666666666666666666666666666666666666",
"66666666666666666666 . 666  6  .*%XX. 666    X.  6666666666666666666666666666666666666",
"6666666666666666666 . 666    X%%%  .X 6666    XX  666666666666 66666666666666666666666",
"6666666666666666666  666  .XXX  666 X. 666  6  XXX  6666666666 66666666666666666666666",
"6666666666666666666    . .  .X 66666 .. 6  6666  ...   6666666 66666666666666666666666",
"66666666666666666666      6 .XX 66666 .     6666  ....   6666  66666666666666666666666",
"66666666666666666666666666 .X.X. 6666 .  66   6666             66666666666666666666666",
"66666666666666666666@ 666 .X  .X. 666 . 666     66  -@@.....  666666666666666666666666",
"6666666666666666666@2@ 66  666  X       666 6      -2- =     6666666666666666666666666",
"666666666666   6666 @- 66 66666 X....2@ 666  XX.   =2  =  6666666666666666666666666666",
"66666666666 66  6666  666 66666 X..  @- 666  .X%*. @@  - 666666666666666@ 666666666666",
"6666666666 6666 66666  6  6666 .%.      66      X%  @=- 666666666666666@2@ 66666666666",
"6666666666 6666  66666   66666 *X  666   6 . 666 XX.    666666666666666 @- 66666666666",
"6666666666 66666  66666666666 *X. 6666  .  .666666XX    6666666666666666  666666666666",
"66666666666   66 . 666666666 %X. 666666  ...6666   X.   6666666666666666 6666666666666",
"6666666666666@ 66 .  66666  %X. 66666666  .  6      X   666666666    6666 666666666666",
"666666666666@2@ 66 ...   .XX.... 66666666 X..  666  X    666666   66  666 666666666666",
"666666666666 @- 666  ..XXX.     . 666666 *X.. 66666 X      66     666    6666666666666",
"6666666666666  66666       6666  . 66666*XX  6666666  6      ... 666666666666666666666",
"66666666666666666666666666666666   66666%X. 66666666 666        6666666666666666666666",
"666666666666666666666666666666666  6666 X.  6666666  66666    666666666666666666666666",
"666666666666666666666666666666666  6666 .  6666666  6666666666666666666666666666666666",
"6666666666666666666666666666666   66666 .  6666@   66666666666666666666666666666666666",
"666666666666666666666666666666  6666666 . 6666@2@ 666666666666666666666666666666666666",
"666666666666666666666666666666 66666666    666 @- 666666666666666666666666666666666666",
"666666666666666666666666666666  66666666    666  6666666666666666666666666666666666666",
"6666666666666666666666666666666 @ 6666666   666666666666666666666666666666666666666666",
"6666666666666666666666666666666@2@ 666666.  666666666666666666666666666666666666666666",
"6666666666666666666666666666666 @- 66666.X  666666666666666666666666666666666666666666",
"66666666666666666666666666666666  66666X*   666666666666666666666666666666666666666666",
"66666666666666666666666666666666666666.%   6666666666666666666666666666666666666666666",
"66666666666666666666666666666666666666.  666666666666666666666666666666666666666666666",
"66666666666666666666666666666666666666  6666666666666666666666666666666666666666666666",
"66666666666666666666666666666666666666  6666666666666666666666666666666666666666666666",
"666666666666666666666666666666666666666  666666666666666666666666666666666666666666666",
"6666666666666666666666666666666666666666 666666666666666666666666666666666666666666666",
"6666666666666666666666666666666666666666@ 66666666666666666666666666666666666666666666",
"666666666666666666666666666666666666666@2@ 6666666666666666666666666666666666666666666",
"666666666666666666666666666666666666666 @- 6666666666666666666666666666666666666666666",
"6666666666666666666666666666666666666666  66666666666666666666666666666666666666666666"
};
